<?xml version="1.0" encoding="UTF-8" standalone="no"?>
<!DOCTYPE svg PUBLIC "-//W3C//DTD SVG 1.1//EN" "http://www.w3.org/Graphics/SVG/1.1/DTD/svg11.dtd">
<svg width="100%" height="100%" viewBox="0 0 1024 640" version="1.1" xmlns="http://www.w3.org/2000/svg" xmlns:xlink="http://www.w3.org/1999/xlink" xml:space="preserve" xmlns:serif="http://www.serif.com/" style="fill-rule:evenodd;clip-rule:evenodd;stroke-linejoin:round;stroke-miterlimit:1.41421;">
    <g transform="matrix(1,0,0,1,-1.13687e-13,-192)">
        <path d="M950.154,832L73.846,832C33.127,832 0,798.875 0,758.154L0,265.846C0,225.127 33.126,192.001 73.846,192L950.154,192C990.876,192.001 1024,225.127 1024,265.846L1024,758.154C1024,798.874 990.877,831.998 950.154,832ZM548.087,239.472L355.375,422.609L219.166,307.152C216.86,307.152 214.988,309.024 214.988,311.33L214.988,662.868C209.216,658.749 202.094,655.712 193.817,653.853C188.565,652.914 175.099,652.432 169.366,652.914C149.685,655.347 129.57,663.441 112.25,676.907C92.568,691.288 79.126,710.488 74.79,730.169C73.851,736.456 73.851,747.465 75.272,752.283C79.584,769.122 93.05,779.649 113.189,783.985C118.922,784.925 133.424,784.925 140.579,783.985C158.815,780.588 177.556,772.398 193.817,760.449C213.016,746.068 226.852,728.125 231.188,708.444C231.251,708.021 231.701,704.396 231.701,703.536L231.701,443.489L355.317,561.295L535.553,380.283L535.553,594.01C529.882,590.089 522.952,587.186 514.939,585.387C509.688,584.447 496.222,583.966 490.488,584.447C470.807,586.88 450.692,594.975 433.372,608.441C413.691,622.822 400.249,642.021 395.913,661.703C394.973,667.99 394.973,678.999 396.394,683.817C400.706,700.656 414.172,711.183 434.311,715.519C440.045,716.458 454.547,716.458 461.701,715.519C479.937,712.122 498.679,703.932 514.939,691.983C534.139,677.602 547.605,658.402 551.941,638.721C552.043,638.039 552.724,625.64 552.265,621.011L552.265,243.651C552.265,241.345 550.393,239.472 548.087,239.472ZM832,320L704,320L704,512L608,512L767.091,735.875L928,512L832,512L832,320ZM231.701,348.207L355.317,466.012L535.553,285.001L535.553,336.293L355.215,517.563L231.701,399.867L231.701,348.207Z" style="fill-rule:nonzero;"/>
    </g>
</svg>
